<svg width="50" height="50" viewBox="0 0 76 74" fill="none" xmlns="http://www.w3.org/2000/svg">
<path d="M38 36C46.7445 36 53.8333 28.9112 53.8333 20.1666C53.8333 11.4221 46.7445 4.33331 38 4.33331C29.2555 4.33331 22.1666 11.4221 22.1666 20.1666C22.1666 28.9112 29.2555 36 38 36Z" stroke="white" stroke-width="2"/>
<path d="M53.8333 42.3333H54.948C57.2631 42.334 59.4982 43.18 61.2336 44.7124C62.9689 46.2448 64.0849 48.3581 64.372 50.6553L65.6102 60.548C65.7215 61.4392 65.6421 62.3439 65.3771 63.202C65.1121 64.0601 64.6676 64.8521 64.0731 65.5253C63.4787 66.1986 62.7478 66.7377 61.9291 67.1068C61.1103 67.476 60.2224 67.6668 59.3243 67.6667H16.6757C15.7775 67.6668 14.8896 67.476 14.0709 67.1068C13.2522 66.7377 12.5213 66.1986 11.9268 65.5253C11.3324 64.8521 10.8879 64.0601 10.6229 63.202C10.3579 62.3439 10.2785 61.4392 10.3898 60.548L11.6248 50.6553C11.912 48.357 13.029 46.2428 14.7656 44.7103C16.5023 43.1777 18.739 42.3324 21.0552 42.3333H22.1667" stroke="white" stroke-width="2" stroke-linecap="round" stroke-linejoin="round"/>
</svg>
