<svg width="40" height="40" viewBox="0 0 60 60" fill="none" xmlns="http://www.w3.org/2000/svg">
<g clip-path="url(#clip0_2_10)">
<path d="M35.2687 3.9375C33.72 -1.3125 26.28 -1.3125 24.7312 3.9375L24.3562 5.2125C24.1248 5.99848 23.7204 6.7227 23.1727 7.33205C22.625 7.94139 21.9478 8.42042 21.1909 8.73399C20.4339 9.04756 19.6164 9.18773 18.7982 9.14421C17.98 9.10069 17.1819 8.8746 16.4625 8.4825L15.3 7.845C10.4887 5.2275 5.2275 10.4888 7.84875 15.2963L8.4825 16.4625C10.155 19.5375 8.56875 23.3662 5.2125 24.3562L3.9375 24.7312C-1.3125 26.28 -1.3125 33.72 3.9375 35.2687L5.2125 35.6437C5.99848 35.8752 6.7227 36.2795 7.33205 36.8273C7.94139 37.375 8.42042 38.0522 8.73399 38.8091C9.04756 39.5661 9.18773 40.3836 9.14421 41.2018C9.10069 42.02 8.8746 42.8181 8.4825 43.5375L7.845 44.7C5.2275 49.5112 10.4888 54.7725 15.2963 52.1512L16.4625 51.5175C17.1819 51.1254 17.98 50.8993 18.7982 50.8558C19.6164 50.8123 20.4339 50.9524 21.1909 51.266C21.9478 51.5796 22.625 52.0586 23.1727 52.668C23.7204 53.2773 24.1248 54.0015 24.3562 54.7875L24.7312 56.0625C26.28 61.3125 33.72 61.3125 35.2687 56.0625L35.6437 54.7875C35.8752 54.0015 36.2795 53.2773 36.8273 52.668C37.375 52.0586 38.0522 51.5796 38.8091 51.266C39.5661 50.9524 40.3836 50.8123 41.2018 50.8558C42.02 50.8993 42.8181 51.1254 43.5375 51.5175L44.7 52.155C49.5112 54.7725 54.7725 49.5112 52.1512 44.7037L51.5175 43.5375C51.1254 42.8181 50.8993 42.02 50.8558 41.2018C50.8123 40.3836 50.9524 39.5661 51.266 38.8091C51.5796 38.0522 52.0586 37.375 52.668 36.8273C53.2773 36.2795 54.0015 35.8752 54.7875 35.6437L56.0625 35.2687C61.3125 33.72 61.3125 26.28 56.0625 24.7312L54.7875 24.3562C54.0015 24.1248 53.2773 23.7204 52.668 23.1727C52.0586 22.625 51.5796 21.9478 51.266 21.1909C50.9524 20.4339 50.8123 19.6164 50.8558 18.7982C50.8993 17.98 51.1254 17.1819 51.5175 16.4625L52.155 15.3C54.7725 10.4887 49.5112 5.2275 44.7037 7.84875L43.5375 8.4825C42.8181 8.8746 42.02 9.10069 41.2018 9.14421C40.3836 9.18773 39.5661 9.04756 38.8091 8.73399C38.0522 8.42042 37.375 7.94139 36.8273 7.33205C36.2795 6.7227 35.8752 5.99848 35.6437 5.2125L35.2687 3.9375ZM30 40.9875C27.0859 40.9875 24.2912 39.8299 22.2307 37.7693C20.1701 35.7088 19.0125 32.9141 19.0125 30C19.0125 27.0859 20.1701 24.2912 22.2307 22.2307C24.2912 20.1701 27.0859 19.0125 30 19.0125C32.9131 19.0125 35.7068 20.1697 37.7667 22.2296C39.8265 24.2894 40.9837 27.0832 40.9837 29.9963C40.9837 32.9093 39.8265 35.7031 37.7667 37.7629C35.7068 39.8228 32.9131 40.98 30 40.98V40.9875Z" fill="white"/>
</g>
<defs>
<clipPath id="clip0_2_10">
<rect width="60" height="60" fill="white"/>
</clipPath>
</defs>
</svg>
